<?xml version="1.0" encoding="UTF-8"?>
<svg id="_レイヤー_1" data-name="レイヤー 1" xmlns="http://www.w3.org/2000/svg" viewBox="0 0 29.77 29.28">
  <path d="m5.11,21.62c.9,1.24,1.95,2.25,2.98,2.1,1.32-.18,1.61-2.09,2.89-2.17" style="fill: none; stroke: #fff; stroke-miterlimit: 10; stroke-width: 2px;"/>
  <path d="m23.45,1H2c-.55,0-1,.45-1,1v25.28c0,.55.45,1,1,1h24.6c.55,0,1-.45,1-1V8.19" style="fill: none; stroke: #fff; stroke-linecap: square; stroke-linejoin: round; stroke-width: 2px;"/>
  <path d="m19.1,8.83c-.59-.6-1.06-1.26-1.92-1.18-1.45.14-1.87,1.76-3.22,1.73-1.52-.03-1.95-2.11-3.3-2.03-1.28.08-1.57,1.99-2.89,2.17-1.03.14-2.08-.86-2.98-2.1" style="fill: none; stroke: #fff; stroke-miterlimit: 10; stroke-width: 2px;"/>
  <path d="m24.75,14.89c-1.98,1.96-3.29,2.13-4.1,1.96-.24-.05-.45-.15-.65-.26" style="fill: none; stroke: #fff; stroke-miterlimit: 10; stroke-width: 2px;"/>
  <path d="m13.32,16.5c-1.07-.99-1.29-2.08-2.5-2-1.28.08-1.57,1.99-2.89,2.17-1.03.14-2.08-.86-2.98-2.1" style="fill: none; stroke: #fff; stroke-miterlimit: 10; stroke-width: 2px;"/>
  <g>
    <polygon points="11.41 23.74 11.89 19.97 14.9 22.23 11.41 23.74" style="fill: #fff; stroke-width: 0px;"/>
    <rect x="19.28" y="-1.08" width="3.79" height="23.54" transform="translate(10.7 -10.59) rotate(37)" style="fill: #fff; stroke-width: 0px;"/>
  </g>
</svg>